# xmcd CD database file
#
# Track frame offsets:
#	150
#	16613
#	33708
#	53145
#	73771
#	87569
#	105257
#	117834
#	142976
#	160587
#	176384
#	194598
#
# Disc length: 2825 seconds
#
# Revision: 0
# Processed by: cddbd v1.5.2PL0 Copyright (c) Steve Scherf et al.
# Submitted via: CDex 1.79
#
DISCID=970b070c
DTITLE=Caro Emerald - Deleted scenes from the cutting room floor
DYEAR=2010
DGENRE=Jazz
TTITLE0=That man
TTITLE1=Just one dance
TTITLE2=Riviera life
TTITLE3=Back it up
TTITLE4=The other woman
TTITLE5=Absolutely me
TTITLE6=You don't love me
TTITLE7=Dr. Wanna Do
TTITLE8=Stuck
TTITLE9=I know that he's mine
TTITLE10=A night like this
TTITLE11=The lipstick on his collar
EXTD=YEAR: 2010
EXTT0=
EXTT1=
EXTT2=
EXTT3=
EXTT4=
EXTT5=
EXTT6=
EXTT7=
EXTT8=
EXTT9=
EXTT10=
EXTT11=
PLAYORDER=
